# xmcd
#
# Track frame offsets:
#	150
#	15450
#	33612
#	47588
#	59401
#	73174
#	89518
#	105038
#	127711
#	146270
#	161328
#	173632
#	186345
#
# Disc length: 2692 seconds
# Revision: 0
# Processed by: cddbd v1.5.2PL0 Copyright (c) Steve Scherf et al.
# Submitted via: dBpowerAMP V12.0
#
DISCID=a00a820d
DTITLE=River Boy - And Other Natural Flavors
DYEAR=2019
DGENRE=Bluegrass
TTITLE0=A Dog's Dream
TTITLE1=Enid and Arthur
TTITLE2=Arland Said
TTITLE3=Take Me with You
TTITLE4=London Drive Lullaby
TTITLE5=Boot Dawkins
TTITLE6=Anna
TTITLE7=Blackbeard
TTITLE8=Tennyson's Tune
TTITLE9=Don't Look into Her Eyes
TTITLE10=Summer Snow
TTITLE11=Buffalo Jen
TTITLE12=Doolin Days
EXTD=
EXTT0=
EXTT1=
EXTT2=
EXTT3=
EXTT4=
EXTT5=
EXTT6=
EXTT7=
EXTT8=
EXTT9=
EXTT10=
EXTT11=
EXTT12=
PLAYORDER=
